<svg width="640" height="641" viewBox="0 0 640 641" fill="none" xmlns="http://www.w3.org/2000/svg">
<g clip-path="url(#clip0_32_2)">
<path d="M336.953 65.8877C379.984 68.402 419.456 80.8027 455.824 102.924C492.959 125.512 522.574 155.644 544.563 193.118C564.953 227.868 576.428 265.447 579.198 305.668C582.407 352.261 573.767 396.629 552.785 438.255C523.258 496.833 477.779 538.726 416.887 563.067C364.217 584.121 310.003 587.156 255.185 572.379C186.404 553.837 133.719 513.355 98.17 451.917C62.9407 391.031 54.6441 325.611 72.4438 257.561C90.6133 188.097 131.869 135.548 193.67 99.4694C237.672 73.7813 285.587 63.1371 336.953 65.8877ZM320.623 220.347C303.399 220.942 287.186 224.983 271.909 233.277C219.54 261.707 202.497 331.284 236.072 380.418C263.164 420.066 310.136 435.677 356.123 420.316C411.133 401.942 440.417 336.287 416.535 283.387C398.21 242.798 366.04 222.038 320.623 220.347Z" fill="#020202"/>
<path d="M321.092 220.335C366.04 222.037 398.21 242.797 416.534 283.387C440.417 336.287 411.133 401.941 356.123 420.316C310.136 435.676 263.164 420.066 236.072 380.418C202.497 331.283 219.54 261.707 271.909 233.277C287.185 224.983 303.399 220.941 321.092 220.335ZM226.939 332.218C231.957 371.427 252.736 398.694 289.625 412.779C326.591 426.892 369.439 414.976 394.667 384.597C432.457 339.09 421.18 271.511 369.997 241.573C336.364 221.9 301.819 222.829 269.393 244.158C238.589 264.42 224.72 294.268 226.939 332.218Z" fill="#F0F0F0"/>
<path d="M226.893 331.746C224.72 294.268 238.589 264.42 269.394 244.158C301.819 222.83 336.364 221.901 369.997 241.573C421.18 271.511 432.457 339.09 394.667 384.597C369.439 414.976 326.591 426.892 289.626 412.779C252.737 398.695 231.957 371.427 226.893 331.746ZM324.994 329.436C326.172 326.921 328.46 324.32 328.275 321.909C327.98 318.07 324.855 315.917 320.721 316.517C316.574 317.119 314.116 320.928 315.011 324.972C315.889 328.938 319.274 330.68 324.994 329.436Z" fill="#020202"/>
<path d="M324.677 329.611C319.274 330.681 315.89 328.938 315.012 324.973C314.116 320.929 316.575 317.12 320.721 316.518C324.855 315.917 327.98 318.07 328.275 321.909C328.46 324.32 326.172 326.921 324.677 329.611Z" fill="#EFEFEF"/>
</g>
<defs>
<clipPath id="clip0_32_2">
<rect width="640" height="641" fill="white"/>
</clipPath>
</defs>
</svg>
